<svg width="40" height="31" viewBox="0 0 40 31" fill="none" xmlns="http://www.w3.org/2000/svg">
<path d="M33.9138 2.57393C33.9027 2.55238 33.8842 2.5355 33.8618 2.52631C31.2684 1.33642 28.5316 0.487928 25.7199 0.00208121C25.6943 -0.00266785 25.6679 0.000758179 25.6445 0.011872C25.621 0.0229859 25.6016 0.0412217 25.5891 0.0639862C25.2164 0.740376 24.8781 1.43514 24.5755 2.14563C21.5446 1.68554 18.4617 1.68554 15.4308 2.14563C15.1261 1.43334 14.7824 0.738398 14.4012 0.0639862C14.3881 0.0417165 14.3686 0.0239006 14.3453 0.0128589C14.322 0.00181727 14.2958 -0.00193842 14.2703 0.00208121C11.4583 0.486908 8.72133 1.33546 6.12824 2.52638C6.10605 2.53579 6.08732 2.55185 6.07464 2.57236C0.888973 10.3165 -0.531576 17.8702 0.165297 25.3303C0.167258 25.3486 0.172875 25.3663 0.181815 25.3824C0.190755 25.3985 0.202836 25.4126 0.217338 25.4239C3.2369 27.6596 6.61432 29.3662 10.2055 30.4708C10.2308 30.4783 10.2578 30.478 10.2829 30.4698C10.3079 30.4616 10.3299 30.4459 10.3458 30.4248C11.1171 29.3753 11.8005 28.264 12.3891 27.1022C12.3972 27.0862 12.4019 27.0688 12.4027 27.0509C12.4035 27.033 12.4006 27.0152 12.394 26.9986C12.3875 26.9819 12.3775 26.9669 12.3647 26.9544C12.3519 26.9419 12.3366 26.9323 12.3198 26.9261C11.2421 26.5138 10.1988 26.0167 9.19955 25.4395C9.1814 25.4289 9.16615 25.4139 9.15516 25.3959C9.14417 25.378 9.13777 25.3576 9.13653 25.3365C9.13528 25.3155 9.13923 25.2945 9.14803 25.2754C9.15682 25.2563 9.1702 25.2396 9.18696 25.2269C9.39722 25.0698 9.60383 24.9079 9.80662 24.7414C9.82441 24.7267 9.84593 24.7173 9.86877 24.7142C9.89161 24.7112 9.91485 24.7145 9.93588 24.7239C16.4821 27.7115 23.5693 27.7115 30.038 24.7239C30.0591 24.7139 30.0826 24.7101 30.1057 24.7129C30.1289 24.7157 30.1508 24.725 30.1689 24.7398C30.3719 24.9072 30.579 25.0697 30.7901 25.2269C30.807 25.2395 30.8204 25.256 30.8294 25.2751C30.8383 25.2942 30.8424 25.3151 30.8413 25.3361C30.8402 25.3572 30.834 25.3776 30.8231 25.3956C30.8123 25.4136 30.7971 25.4287 30.7791 25.4395C29.7821 26.0215 28.7378 26.5183 27.6573 26.9246C27.6405 26.9309 27.6253 26.9408 27.6126 26.9535C27.5999 26.9662 27.59 26.9814 27.5835 26.9982C27.5771 27.0149 27.5743 27.0328 27.5753 27.0508C27.5763 27.0687 27.5811 27.0862 27.5893 27.1022C28.1877 28.2575 28.8702 29.3674 29.631 30.4229C29.6465 30.4446 29.6684 30.4608 29.6935 30.4694C29.7187 30.4779 29.746 30.4783 29.7714 30.4706C33.369 29.3697 36.7523 27.663 39.7756 25.4239C39.7904 25.4131 39.8026 25.3994 39.8116 25.3835C39.8206 25.3676 39.8261 25.3501 39.8277 25.3319C40.662 16.7072 38.4309 9.21538 33.9138 2.57393ZM13.3668 20.7879C11.3959 20.7879 9.77193 18.9792 9.77193 16.758C9.77193 14.5368 11.3644 12.728 13.3668 12.728C15.3848 12.728 16.993 14.5525 16.9615 16.7579C16.9615 18.9792 15.369 20.7879 13.3668 20.7879ZM26.658 20.7879C24.6872 20.7879 23.0632 18.9792 23.0632 16.758C23.0632 14.5368 24.6557 12.728 26.658 12.728C28.6761 12.728 30.2843 14.5525 30.2528 16.7579C30.2528 18.9792 28.6761 20.7879 26.658 20.7879Z" fill="#B455FF"/>
</svg>
