<svg width="40" height="31" viewBox="0 0 40 31" fill="none" xmlns="http://www.w3.org/2000/svg">
<path d="M33.9138 2.58714C33.9027 2.5656 33.8842 2.54872 33.8618 2.53952C31.2684 1.34963 28.5316 0.501142 25.7199 0.0152953C25.6943 0.0105463 25.6679 0.0139723 25.6445 0.0250862C25.621 0.0362 25.6016 0.0544359 25.5891 0.0772003C25.2164 0.75359 24.8781 1.44835 24.5755 2.15884C21.5446 1.69876 18.4617 1.69876 15.4308 2.15884C15.1261 1.44655 14.7824 0.751612 14.4012 0.0772003C14.3881 0.0549306 14.3686 0.0371147 14.3453 0.026073C14.322 0.0150314 14.2958 0.0112757 14.2703 0.0152953C11.4583 0.500122 8.72133 1.34867 6.12824 2.53959C6.10605 2.549 6.08732 2.56507 6.07464 2.58558C0.888973 10.3297 -0.531576 17.8834 0.165297 25.3436C0.167258 25.3618 0.172875 25.3795 0.181815 25.3956C0.190755 25.4117 0.202836 25.4258 0.217338 25.4371C3.2369 27.6728 6.61432 29.3794 10.2055 30.484C10.2308 30.4916 10.2578 30.4912 10.2829 30.483C10.3079 30.4748 10.3299 30.4591 10.3458 30.438C11.1171 29.3885 11.8005 28.2772 12.3891 27.1154C12.3972 27.0994 12.4019 27.082 12.4027 27.0641C12.4035 27.0463 12.4006 27.0284 12.394 27.0118C12.3875 26.9952 12.3775 26.9801 12.3647 26.9676C12.3519 26.9551 12.3366 26.9455 12.3198 26.9393C11.2421 26.527 10.1988 26.0299 9.19955 25.4527C9.1814 25.4421 9.16615 25.4271 9.15516 25.4091C9.14417 25.3912 9.13777 25.3708 9.13653 25.3498C9.13528 25.3287 9.13923 25.3077 9.14803 25.2886C9.15682 25.2695 9.1702 25.2528 9.18696 25.2401C9.39722 25.083 9.60383 24.9211 9.80662 24.7546C9.82441 24.7399 9.84593 24.7305 9.86877 24.7275C9.89161 24.7244 9.91485 24.7277 9.93588 24.7372C16.4821 27.7247 23.5693 27.7247 30.038 24.7372C30.0591 24.7271 30.0826 24.7233 30.1057 24.7261C30.1289 24.7289 30.1508 24.7382 30.1689 24.753C30.3719 24.9205 30.579 25.0829 30.7901 25.2401C30.807 25.2527 30.8204 25.2692 30.8294 25.2883C30.8383 25.3074 30.8424 25.3283 30.8413 25.3493C30.8402 25.3704 30.834 25.3908 30.8231 25.4088C30.8123 25.4269 30.7971 25.4419 30.7791 25.4527C29.7821 26.0347 28.7378 26.5315 27.6573 26.9378C27.6405 26.9442 27.6253 26.954 27.6126 26.9667C27.5999 26.9794 27.59 26.9946 27.5835 27.0114C27.5771 27.0281 27.5743 27.0461 27.5753 27.064C27.5763 27.0819 27.5811 27.0994 27.5893 27.1154C28.1877 28.2708 28.8702 29.3807 29.631 30.4362C29.6465 30.4578 29.6684 30.4741 29.6935 30.4826C29.7187 30.4911 29.746 30.4916 29.7714 30.4838C33.369 29.383 36.7523 27.6762 39.7756 25.4371C39.7904 25.4263 39.8026 25.4126 39.8116 25.3967C39.8206 25.3809 39.8261 25.3633 39.8277 25.3451C40.662 16.7204 38.4309 9.22859 33.9138 2.58714ZM13.3668 20.8011C11.3959 20.8011 9.77193 18.9924 9.77193 16.7712C9.77193 14.55 11.3644 12.7412 13.3668 12.7412C15.3848 12.7412 16.993 14.5657 16.9615 16.7711C16.9615 18.9924 15.369 20.8011 13.3668 20.8011ZM26.658 20.8011C24.6872 20.8011 23.0632 18.9924 23.0632 16.7712C23.0632 14.55 24.6557 12.7412 26.658 12.7412C28.6761 12.7412 30.2843 14.5657 30.2528 16.7711C30.2528 18.9924 28.6761 20.8011 26.658 20.8011Z" fill="#B455FF"/>
</svg>
