<svg width="40" height="41" viewBox="0 0 40 41" fill="none" xmlns="http://www.w3.org/2000/svg">
<path d="M20 0.0132141C8.95968 0.0132141 0 8.97289 0 20.0132C0 31.0535 8.95968 40.0132 20 40.0132C31.0403 40.0132 40 31.0535 40 20.0132C40 8.97289 31.0403 0.0132141 20 0.0132141ZM28.121 29.4406C27.7823 29.4406 27.5726 29.3358 27.2581 29.1503C22.2258 26.1181 16.371 25.989 10.5887 27.1745C10.2742 27.2551 9.8629 27.3842 9.62903 27.3842C8.84677 27.3842 8.35484 26.7632 8.35484 26.11C8.35484 25.2793 8.84677 24.8842 9.45161 24.7551C16.0565 23.2955 22.8065 23.4245 28.5645 26.8681C29.0565 27.1826 29.3468 27.4648 29.3468 28.1987C29.3468 28.9326 28.7742 29.4406 28.121 29.4406ZM30.2903 24.1503C29.871 24.1503 29.5887 23.9648 29.2984 23.8116C24.2581 20.8277 16.7419 19.6261 10.0565 21.4406C9.66935 21.5455 9.45968 21.6503 9.09677 21.6503C8.23387 21.6503 7.53226 20.9487 7.53226 20.0858C7.53226 19.2229 7.95161 18.6503 8.78226 18.4164C11.0242 17.7874 13.3145 17.3197 16.6694 17.3197C21.9032 17.3197 26.9597 18.6181 30.9435 20.989C31.5968 21.3761 31.8548 21.8761 31.8548 22.5777C31.8468 23.4487 31.1694 24.1503 30.2903 24.1503ZM32.7903 18.0051C32.371 18.0051 32.1129 17.9003 31.75 17.6906C26.0081 14.2632 15.7419 13.4406 9.09677 15.2955C8.80645 15.3761 8.44355 15.5051 8.05645 15.5051C6.99194 15.5051 6.17742 14.6745 6.17742 13.6019C6.17742 12.5051 6.85484 11.8842 7.58065 11.6745C10.4194 10.8439 13.5968 10.4487 17.0565 10.4487C22.9435 10.4487 29.1129 11.6745 33.621 14.3035C34.25 14.6664 34.6613 15.1664 34.6613 16.1261C34.6613 17.2229 33.7742 18.0051 32.7903 18.0051Z" fill="#B455FF"/>
</svg>
